<?xml version="1.0" encoding="UTF-8"?>
<svg width="16px" height="16px" viewBox="0 0 16 16" version="1.1" xmlns="http://www.w3.org/2000/svg" xmlns:xlink="http://www.w3.org/1999/xlink">
    <!-- Generator: Sketch 46.2 (44496) - http://www.bohemiancoding.com/sketch -->
    <title>XMLID_781_</title>
    <desc>Created with Sketch.</desc>
    <defs></defs>
    <g id="Page-1" stroke="none" stroke-width="1" fill="none" fill-rule="evenodd">
        <g id="Controls-23" fill-rule="nonzero" fill="#FFFFFF">
            <path d="M13,0 L3,0 C1.3,0 0,1.3 0,3 L0,13 C0,14.7 1.3,16 3,16 L13,16 C14.7,16 16,14.7 16,13 L16,3 C16,1.3 14.7,0 13,0 Z M12.7,11.3 L11.3,12.7 L8,9.4 L4.7,12.7 L3.3,11.3 L6.6,8 L3.3,4.7 L4.7,3.3 L8,6.6 L11.3,3.3 L12.7,4.7 L9.4,8 L12.7,11.3 Z" id="XMLID_781_"></path>
        </g>
    </g>
</svg>