<?xml version="1.0" encoding="UTF-8"?>
<svg width="96px" height="92px" viewBox="0 0 96 92" version="1.1" xmlns="http://www.w3.org/2000/svg" xmlns:xlink="http://www.w3.org/1999/xlink">
    <!-- Generator: Sketch 43.2 (39069) - http://www.bohemiancoding.com/sketch -->
    <title>noun_591332_cc</title>
    <desc>Created with Sketch.</desc>
    <defs></defs>
    <g id="Page-1" stroke="none" stroke-width="1" fill="none" fill-rule="evenodd">
        <g id="noun_591332_cc" fill-rule="nonzero" fill="#FF3604">
            <path d="M79.8,33.7 C81,36.9 81.8,40.3 82,43.9 L63.8,43.9 L49.8,58.1 L49.8,25.3 L31.3,43.9 L14,43.9 C15.1,26.1 29.9,11.9 48,11.9 C56.4,11.9 64,14.9 70,20 L62.8,27.2 L95.6,36.1 L86.6,3.3 L78.1,11.8 C70.1,4.7 59.6,0.4 48,0.4 C22.8,0.4 2.4,20.8 2.4,46 C2.4,49 2.7,51.8 3.2,54.6 L16.1,58.1 C14.8,54.8 14.1,51.2 13.9,47.4 L32.7,47.4 L46.1,33.9 L46.1,66.7 L65.2,47.4 L81.9,47.4 C81.3,65.6 66.4,80.1 48,80.1 C39.6,80.1 31.9,77 25.9,71.9 C29.2,68.6 32,65.8 33.2,64.6 L0.5,55.7 L9.4,88.5 C10.8,87.1 14.1,83.8 17.8,80.1 C25.9,87.3 36.5,91.6 48.1,91.6 C73.3,91.6 93.7,71.2 93.7,46 C93.7,43 93.4,40 92.8,37.2 L79.8,33.7 Z M6.3,51.8 C6,49.9 5.9,47.9 5.9,46 C5.9,22.8 24.8,3.9 48,3.9 C58.3,3.9 68.1,7.6 75.8,14.4 L78.3,16.6 L80.7,14.2 L84.8,10.1 L90.5,31 L69.6,25.4 L72.5,22.5 L75.2,19.8 L72.3,17.3 C65.5,11.6 56.9,8.4 48,8.4 C27.2,8.4 10.4,25.3 10.4,46 C10.4,48.4 10.6,50.7 11.1,53.1 L6.3,51.8 Z M48,88.1 C37.7,88.1 27.8,84.3 20.1,77.5 L17.6,75.3 L15.2,77.7 L11.2,81.7 L5.5,60.8 L26.4,66.4 L25.8,67 L23.4,69.4 L20.7,72.1 L23.6,74.6 C30.4,80.4 39.1,83.6 48,83.6 C68.8,83.6 85.6,66.7 85.6,46 C85.6,43.5 85.4,41.1 84.9,38.7 L89.6,40 C89.9,42 90,44 90,46 C90.1,69.2 71.2,88.1 48,88.1 Z" id="Shape"></path>
        </g>
    </g>
</svg>